<?xml version="1.0" encoding="UTF-8"?>
<!DOCTYPE svg PUBLIC "-//W3C//DTD SVG 1.1//EN" "http://www.w3.org/Graphics/SVG/1.1/DTD/svg11.dtd">
<svg version="1.2" width="250mm" height="252.5mm" viewBox="0 0 26250 37125" preserveAspectRatio="xMidYMid" fill-rule="evenodd" stroke-width="28.222" stroke-linejoin="round" xmlns="http://www.w3.org/2000/svg" xmlns:ooo="http://xml.openoffice.org/svg/export" xmlns:xlink="http://www.w3.org/1999/xlink" xmlns:presentation="http://sun.com/xmlns/staroffice/presentation" xmlns:smil="http://www.w3.org/2001/SMIL20/" xmlns:anim="urn:oasis:names:tc:opendocument:xmlns:animation:1.0" xml:space="preserve">
 <defs class="ClipPathGroup">
  <clipPath id="presentation_clip_path" clipPathUnits="userSpaceOnUse">
   <rect x="0" y="0" width="26250" height="26250"/>
  </clipPath>
  <clipPath id="presentation_clip_path_shrink" clipPathUnits="userSpaceOnUse">
   <rect x="26" y="37" width="26198" height="26198"/>
  </clipPath>
 </defs>
 <defs class="TextShapeIndex">
  <g ooo:slide="id1" ooo:id-list="id3 id4 id5 id6 id7"/>
 </defs>
 <defs class="EmbeddedBulletChars">
  <g id="bullet-char-template-57356" transform="scale(0.00048828125,-0.00048828125)">
   <path d="M 580,1141 L 1163,571 580,0 -4,571 580,1141 Z"/>
  </g>
  <g id="bullet-char-template-57354" transform="scale(0.00048828125,-0.00048828125)">
   <path d="M 8,1128 L 1137,1128 1137,0 8,0 8,1128 Z"/>
  </g>
  <g id="bullet-char-template-10146" transform="scale(0.00048828125,-0.00048828125)">
   <path d="M 174,0 L 602,739 174,1481 1456,739 174,0 Z M 1358,739 L 309,1346 659,739 1358,739 Z"/>
  </g>
  <g id="bullet-char-template-10132" transform="scale(0.00048828125,-0.00048828125)">
   <path d="M 2015,739 L 1276,0 717,0 1260,543 174,543 174,936 1260,936 717,1481 1274,1481 2015,739 Z"/>
  </g>
  <g id="bullet-char-template-10007" transform="scale(0.00048828125,-0.00048828125)">
   <path d="M 0,-2 C -7,14 -16,27 -25,37 L 356,567 C 262,823 215,952 215,954 215,979 228,992 255,992 264,992 276,990 289,987 310,991 331,999 354,1012 L 381,999 492,748 772,1049 836,1024 860,1049 C 881,1039 901,1025 922,1006 886,937 835,863 770,784 769,783 710,716 594,584 L 774,223 C 774,196 753,168 711,139 L 727,119 C 717,90 699,76 672,76 641,76 570,178 457,381 L 164,-76 C 142,-110 111,-127 72,-127 30,-127 9,-110 8,-76 1,-67 -2,-52 -2,-32 -2,-23 -1,-13 0,-2 Z"/>
  </g>
  <g id="bullet-char-template-10004" transform="scale(0.00048828125,-0.00048828125)">
   <path d="M 285,-33 C 182,-33 111,30 74,156 52,228 41,333 41,471 41,549 55,616 82,672 116,743 169,778 240,778 293,778 328,747 346,684 L 369,508 C 377,444 397,411 428,410 L 1163,1116 C 1174,1127 1196,1133 1229,1133 1271,1133 1292,1118 1292,1087 L 1292,965 C 1292,929 1282,901 1262,881 L 442,47 C 390,-6 338,-33 285,-33 Z"/>
  </g>
  <g id="bullet-char-template-9679" transform="scale(0.00048828125,-0.00048828125)">
   <path d="M 813,0 C 632,0 489,54 383,161 276,268 223,411 223,592 223,773 276,916 383,1023 489,1130 632,1184 813,1184 992,1184 1136,1130 1245,1023 1353,916 1407,772 1407,592 1407,412 1353,268 1245,161 1136,54 992,0 813,0 Z"/>
  </g>
  <g id="bullet-char-template-8226" transform="scale(0.00048828125,-0.00048828125)">
   <path d="M 346,457 C 273,457 209,483 155,535 101,586 74,649 74,723 74,796 101,859 155,911 209,963 273,989 346,989 419,989 480,963 531,910 582,859 608,796 608,723 608,648 583,586 532,535 482,483 420,457 346,457 Z"/>
  </g>
  <g id="bullet-char-template-8211" transform="scale(0.00048828125,-0.00048828125)">
   <path d="M -4,459 L 1135,459 1135,606 -4,606 -4,459 Z"/>
  </g>
  <g id="bullet-char-template-61548" transform="scale(0.00048828125,-0.00048828125)">
   <path d="M 173,740 C 173,903 231,1043 346,1159 462,1274 601,1332 765,1332 928,1332 1067,1274 1183,1159 1299,1043 1357,903 1357,740 1357,577 1299,437 1183,322 1067,206 928,148 765,148 601,148 462,206 346,322 231,437 173,577 173,740 Z"/>
  </g>
 </defs>
 <defs class="TextEmbeddedBitmaps"/>
 <g>
  <g id="id2" class="Master_Slide">
   <g id="bg-id2" class="Background"/>
   <g id="bo-id2" class="BackgroundObjects"/>
  </g>
 </g>
 <g class="SlideGroup">
  <g>
   <g id="container-id1">
    <g id="id1" class="Slide" clip-path="url(#presentation_clip_path)">
     <g class="Page">
      <g class="com.sun.star.drawing.ClosedBezierShape">
       <g id="id3">
        <rect class="BoundingBox" stroke="none" fill="none" x="263" y="2045" width="22052" height="22162"/>
        <path fill="rgb(237,28,36)" stroke="none" d="M 16196,2318 C 12337,2632 12240,2648 11513,3082 11259,3228 9893,4561 5720,8729 2718,11725 263,14202 263,14235 263,14262 2496,16522 5222,19247 L 10180,24206 15632,18760 C 20455,13937 21468,12890 21447,12706 21447,12684 21138,12511 20770,12332 20108,12007 20092,12002 20038,12116 20005,12175 17778,14430 15090,17123 L 10207,22011 6322,18125 2431,14235 7265,9395 C 9926,6729 12191,4496 12294,4431 12716,4155 12847,4138 16385,3851 20162,3548 20043,3548 20423,3889 20818,4247 20829,4334 20699,6030 20537,8165 20504,7937 21008,8420 21469,8859 21929,9200 21983,9140 22054,9070 22352,4713 22309,4323 22222,3499 21637,2692 20851,2312 20640,2209 20353,2112 20212,2095 20076,2079 19903,2057 19827,2047 19751,2036 18120,2160 16196,2318 Z"/>
       </g>
      </g>
      <g class="com.sun.star.drawing.ClosedBezierShape">
       <g id="id4">
        <rect class="BoundingBox" stroke="none" fill="none" x="16574" y="4826" width="9416" height="7367"/>
        <path fill="rgb(0,0,0)" stroke="none" d="M 23272,5357 C 23256,5650 23229,6143 23207,6457 L 23180,7026 23456,7406 C 23841,7926 24199,8685 24307,9194 24551,10408 23858,10842 22448,10359 21299,9964 19939,8799 19229,7606 L 19012,7243 19148,6977 C 19478,6327 19202,5476 18557,5146 17506,4604 16302,5601 16628,6750 16703,7021 16991,7389 17246,7547 17349,7606 17484,7796 17625,8078 18671,10143 20958,11893 22947,12159 24876,12419 26220,11086 25955,9173 25879,8647 25651,7921 25413,7444 25039,6701 24275,5715 23586,5081 L 23304,4826 23272,5357 Z"/>
       </g>
      </g>
      <g class="com.sun.star.drawing.ClosedBezierShape">
       <g id="id5">
        <rect class="BoundingBox" stroke="none" fill="none" x="9637" y="8421" width="3523" height="3518"/>
        <path fill="rgb(64,121,39)" stroke="none" d="M 10851,8484 C 10521,8587 10152,8869 9957,9151 9372,9996 9615,11189 10477,11693 10803,11882 11014,11937 11442,11937 12125,11937 12738,11530 13025,10885 13161,10592 13171,10517 13150,10094 13133,9752 13096,9568 13003,9395 12689,8788 12174,8457 11486,8424 11242,8413 10987,8441 10851,8484 Z M 11816,9470 C 12130,9633 12304,10083 12185,10435 12109,10669 11822,10934 11588,10983 11003,11113 10455,10538 10618,9969 10759,9449 11317,9216 11816,9470 Z"/>
       </g>
      </g>
      <g class="com.sun.star.drawing.PolyPolygonShape">
       <g id="id6">
        <rect class="BoundingBox" stroke="none" fill="none" x="7090" y="12581" width="8618" height="978"/>
        <path fill="rgb(64,121,39)" stroke="none" d="M 7090,13069 L 7090,13557 11399,13557 15707,13557 15707,13069 15707,12581 11399,12581 7090,12581 7090,13069 Z"/>
       </g>
      </g>
      <g class="com.sun.star.drawing.ClosedBezierShape">
       <g id="id7">
        <rect class="BoundingBox" stroke="none" fill="none" x="9664" y="14174" width="3496" height="3531"/>
        <path fill="rgb(64,121,39)" stroke="none" d="M 10851,14262 C 10439,14398 10016,14756 9810,15151 9680,15395 9664,15487 9664,15943 9664,16398 9680,16490 9810,16729 9995,17081 10352,17422 10694,17580 10905,17677 11062,17704 11399,17704 11784,17704 11876,17682 12201,17525 12629,17314 12938,16967 13079,16539 13209,16149 13176,15514 13008,15173 12618,14382 11686,13986 10851,14262 Z M 11745,15211 C 11968,15325 12174,15591 12217,15813 12266,16073 12114,16452 11903,16604 11648,16783 11231,16799 10998,16637 10700,16436 10591,16252 10591,15943 10591,15352 11236,14945 11745,15211 Z"/>
       </g>
      </g>
     </g>
    </g>
   </g>
  </g>
 </g>
</svg>