<?xml version="1.0" encoding="UTF-8"?>
<svg width="250px" height="483px" viewBox="0 0 250 483" version="1.1" xmlns="http://www.w3.org/2000/svg" xmlns:xlink="http://www.w3.org/1999/xlink">
    <!-- Generator: Sketch 52.5 (67469) - http://www.bohemiancoding.com/sketch -->
    <title>g10</title>
    <desc>Created with Sketch.</desc>
    <g id="Page-1" stroke="none" stroke-width="1" fill="none" fill-rule="evenodd">
        <g id="MJMFJ1" transform="translate(0.000000, -1.000000)" fill="#222222">
            <g id="g10" transform="translate(125.000000, 241.726959) scale(-1, 1) rotate(-180.000000) translate(-125.000000, -241.726959) translate(-0.000000, 0.226959)">
                <g id="g12" transform="translate(0.000000, -0.000000)">
                    <g id="g6252" transform="translate(0.028845, 0.039880)">
                        <path d="M240.619737,265.546673 L145.691904,362.613747 C134.317133,374.244682 115.622612,374.222881 104.272368,362.613747 L64.2069579,321.646585 C66.709462,315.87472 69.6697912,310.405347 73.0277195,305.271166 L116.966111,350.200694 C121.367226,354.70264 128.597046,354.70264 132.998161,350.200694 L227.925994,253.13362 C230.670219,250.323992 232.182676,246.615064 232.182676,242.688125 L232.182676,17.7818683 L17.7805057,17.7818683 L17.7805057,242.688125 C17.7805057,246.615064 19.2929633,250.323992 22.0388232,253.13362 L45.250278,276.866941 C41.6389108,281.736782 38.318862,286.83826 35.3312814,292.119598 L9.34535271,265.546673 C3.37373419,259.439614 0.0250713688,251.250542 0.0250713688,242.688125 L0.0250713688,8.90442364 C0.0250713688,4.00160847 4.0002459,0.0267064581 8.90278855,0.0267064581 L241.061211,0.0267064581 C245.963754,0.0267064581 249.939746,4.00160847 249.939746,8.90442364 L249.939746,242.688125 C249.939746,251.228741 246.604163,259.425989 240.619737,265.546673" id="path6254"></path>
                    </g>
                    <g id="g6256" transform="translate(82.046196, 200.294684)">
                        <path d="M17.1912806,77.387589 C22.7085862,73.3479734 28.6305241,69.8314735 34.8967347,66.8917421 C51.2139202,72.4179899 68.177176,60.203015 68.177176,43.0050279 C68.177176,29.1022224 56.8675936,17.7926401 42.9647882,17.7926401 C33.745433,17.7926401 25.6662018,22.7667102 21.2689003,30.1752802 C13.8536236,33.4525777 6.75802876,37.3289991 0.0156487599,41.782189 C0.487347095,24.8211688 10.8758882,9.91460719 26.2384993,3.41813628 C48.0640484,-5.81463209 73.3032626,4.4129503 82.5516798,26.2765035 C87.0607582,36.933309 87.0674648,49.0543913 82.5516798,59.7313167 C71.7070891,85.3684565 39.5466519,94.1831795 17.1912806,77.387589" id="path6258"></path>
                    </g>
                    <g id="g6260" transform="translate(26.989066, 234.403971)">
                        <path d="M94.8966177,0.428450869 C99.5726594,-1.04657169 104.558947,1.54818097 106.033969,6.22354523 C107.509331,10.8995869 104.914578,15.8858744 100.239214,17.360897 C38.1046929,36.9653185 3.66604918,103.112713 23.2758898,165.270266 C38.6262853,213.923995 90.4729048,241.11115 139.376931,225.680145 C177.375273,213.693681 198.533633,173.026412 186.54717,135.02807 C184.741918,129.314262 189.016266,123.478524 195.014578,123.478524 C198.787655,123.478524 202.283002,125.900203 203.4786,129.686828 C221.161936,185.737685 181.598816,247.756372 111.56251,247.756372 C64.1636506,247.756372 21.0584449,217.25338 6.34344374,170.611507 C-16.2025555,99.1499663 23.4598019,22.9666601 94.8966177,0.428450869" id="path6262"></path>
                    </g>
                    <g id="g6264" transform="translate(90.592011, 69.004911)">
                        <polyline id="path6266" points="69.0992454 98.0878423 51.402373 98.0878423 0.00212090993 0.00890782169 17.7011142 0.00890782169 69.0992454 98.0878423"></polyline>
                    </g>
                    <g id="g6268" transform="translate(141.706030, 66.959434)" fill-rule="nonzero">
                        <path d="M21.8703887,46.3097518 C23.4936744,48.7739139 26.1508245,50.0055195 29.8418388,50.0055195 C33.5304764,50.0055195 36.1852497,48.7739139 37.8109121,46.3097518 C39.4341979,43.8463028 40.2470291,39.0955182 40.2470291,32.056685 C40.2470291,24.9296763 39.4341979,20.1344474 37.8109121,17.671236 C36.1852497,15.2068363 33.5304764,13.9761813 29.8418388,13.9761813 C26.1508245,13.9761813 23.4936744,15.2068363 21.8703887,17.671236 C20.2471029,20.1344474 19.4342717,24.908286 19.4342717,31.9908504 C19.4342717,39.0743656 20.2471029,43.8463028 21.8703887,46.3097518 Z M30.0391048,0.0118834974 C49.2309532,0.0118834974 59.6789241,10.2181441 59.6789241,32.2218656 C59.6789241,53.0971302 50.1436058,63.9698174 30.0391048,63.9698174 C10.6785108,63.9698174 0.00237669949,53.7930278 0.00237669949,31.958052 C0.00237669949,11.1139221 9.7183242,0.0118834974 30.0391048,0.0118834974 Z" id="path6270"></path>
                    </g>
                    <g id="g6272" transform="translate(48.634316, 105.040078)" fill-rule="nonzero">
                        <path d="M37.8114648,17.6616016 C36.1845245,15.1986198 33.5283323,13.9671289 29.8410825,13.9671289 C26.152027,13.9671289 23.4940291,15.1986198 21.8707002,17.6616016 C20.2455656,20.126389 19.4329983,24.8988676 19.4329983,31.9826487 C19.4329983,39.0646241 20.2455656,43.8371027 21.8707002,46.3018902 C23.4940291,48.7648719 26.152027,49.9981685 29.8410825,49.9981685 C33.5283323,49.9981685 36.1845245,48.7648719 37.8114648,46.3018902 C39.4347937,43.8371027 40.247361,39.0862926 40.247361,32.0476541 C40.247361,24.9205361 39.4347937,20.126389 37.8114648,17.6616016 Z M59.6785536,32.2119733 C59.6785536,53.0895356 50.1426249,63.9616861 30.0379043,63.9616861 C10.67894,63.9616861 0.0018057051,53.7847321 0.0018057051,31.9483403 C0.0018057051,11.1050864 9.71649914,0.00270855765 30.0379043,0.00270855765 C49.2289381,0.00270855765 59.6785536,10.2094566 59.6785536,32.2119733 Z" id="path6274"></path>
                    </g>
                </g>
            </g>
        </g>
    </g>
</svg>