<?xml version="1.0" standalone="yes"?>

<svg version="1.1" viewBox="0.0 0.0 672.0 672.0" fill="none" stroke="none" stroke-linecap="square" stroke-miterlimit="10" xmlns="http://www.w3.org/2000/svg" xmlns:xlink="http://www.w3.org/1999/xlink"><clipPath id="p.0"><path d="m0 0l672.0 0l0 672.0l-672.0 0l0 -672.0z" clip-rule="nonzero"></path></clipPath><g clip-path="url(#p.0)"><path fill="#000000" fill-opacity="0.0" d="m0 0l672.0 0l0 672.0l-672.0 0z" fill-rule="evenodd"></path><path fill="#000000" fill-opacity="0.0" d="m196.13649 47.01837l372.50397 89.480316" fill-rule="evenodd"></path><path stroke="#60a5af" stroke-width="16.0" stroke-linejoin="round" stroke-linecap="round" d="m196.13649 47.01837l372.50397 89.480316" fill-rule="evenodd"></path><path fill="#000000" fill-opacity="0.0" d="m196.13649 47.002625l-178.01575 90.48819" fill-rule="evenodd"></path><path stroke="#60a5af" stroke-width="16.0" stroke-linejoin="round" stroke-linecap="round" d="m196.13649 47.002625l-178.01575 90.48819" fill-rule="evenodd"></path><path fill="#60a5af" d="m540.9754 410.5106l0 0c0.10986328 15.881378 -7.880371 30.611938 -20.947998 38.619324c-13.067688 8.007385 -29.217499 8.068909 -42.34024 0.16131592c-13.122711 -7.9076233 -21.21457 -22.576904 -21.21457 -38.45871l21.125977 0l0 0c0 8.315033 4.0450745 15.995422 10.605286 20.136292c6.5602417 4.140869 14.634186 4.1101074 21.168121 -0.08065796c6.533966 -4.190735 10.530487 -11.901764 10.478058 -20.216583z" fill-rule="evenodd"></path><path stroke="#60a5af" stroke-width="1.0" stroke-linejoin="round" stroke-linecap="round" d="m540.9754 410.5106l0 0c0.10986328 15.881378 -7.880371 30.611938 -20.947998 38.619324c-13.067688 8.007385 -29.217499 8.068909 -42.34024 0.16131592c-13.122711 -7.9076233 -21.21457 -22.576904 -21.21457 -38.45871l21.125977 0l0 0c0 8.315033 4.0450745 15.995422 10.605286 20.136292c6.5602417 4.140869 14.634186 4.1101074 21.168121 -0.08065796c6.533966 -4.190735 10.530487 -11.901764 10.478058 -20.216583z" fill-rule="evenodd"></path><path fill="#60a5af" d="m501.14096 455.17786l0 0c-15.881378 0.10986328 -30.611938 -7.8803406 -38.619324 -20.948029c-8.007355 -13.067688 -8.068878 -29.217499 -0.1612854 -42.34021c7.907593 -13.122711 22.576874 -21.21457 38.45871 -21.21457l0 21.125977l0 0c-8.315063 0 -15.995422 4.0450745 -20.136322 10.605286c-4.140869 6.5602417 -4.1101074 14.634155 0.08065796 21.168121c4.1907654 6.533966 11.901764 10.530487 20.216614 10.478058z" fill-rule="evenodd"></path><path stroke="#60a5af" stroke-width="1.0" stroke-linejoin="round" stroke-linecap="round" d="m501.14096 455.17786l0 0c-15.881378 0.10986328 -30.611938 -7.8803406 -38.619324 -20.948029c-8.007355 -13.067688 -8.068878 -29.217499 -0.1612854 -42.34021c7.907593 -13.122711 22.576874 -21.21457 38.45871 -21.21457l0 21.125977l0 0c-8.315063 0 -15.995422 4.0450745 -20.136322 10.605286c-4.140869 6.5602417 -4.1101074 14.634155 0.08065796 21.168121c4.1907654 6.533966 11.901764 10.530487 20.216614 10.478058z" fill-rule="evenodd"></path><path fill="#000000" fill-opacity="0.0" d="m500.81775 223.04906l0 161.73228" fill-rule="evenodd"></path><path stroke="#60a5af" stroke-width="16.0" stroke-linejoin="round" stroke-linecap="round" d="m500.81775 223.04906l0 161.73228" fill-rule="evenodd"></path><path fill="#000000" fill-opacity="0.0" d="m367.30255 484.4462l267.52155 0" fill-rule="evenodd"></path><path stroke="#ec6424" stroke-width="24.0" stroke-linejoin="round" stroke-linecap="round" d="m367.30255 484.4462l267.52155 0" fill-rule="evenodd"></path><path fill="#000000" fill-opacity="0.0" d="m366.81567 579.95013l266.5376 0" fill-rule="evenodd"></path><path stroke="#ec6424" stroke-width="24.0" stroke-linejoin="round" stroke-linecap="round" d="m366.81567 579.95013l266.5376 0" fill-rule="evenodd"></path><path fill="#000000" fill-opacity="0.0" d="m403.91507 439.95013l0 178.99213" fill-rule="evenodd"></path><path stroke="#ec6424" stroke-width="24.0" stroke-linejoin="round" stroke-linecap="round" d="m403.91507 439.95013l0 178.99213" fill-rule="evenodd"></path><path fill="#000000" fill-opacity="0.0" d="m586.97003 438.95013l0 178.99213" fill-rule="evenodd"></path><path stroke="#ec6424" stroke-width="24.0" stroke-linejoin="round" stroke-linecap="round" d="m586.97003 438.95013l0 178.99213" fill-rule="evenodd"></path><path fill="#60a5af" d="m483.8638 303.32547l33.91031 0l0 0c4.442322 0 8.043579 12.033722 8.043579 26.878113c0 14.84436 -3.6012573 26.878082 -8.043579 26.878082l-33.91031 0l0 0c-4.4423523 0 -8.043579 -12.033722 -8.043579 -26.878082c0 -14.844391 3.6012268 -26.878113 8.043579 -26.878113z" fill-rule="evenodd"></path><path stroke="#60a5af" stroke-width="1.0" stroke-linejoin="round" stroke-linecap="butt" d="m483.8638 303.32547l33.91031 0l0 0c4.442322 0 8.043579 12.033722 8.043579 26.878113c0 14.84436 -3.6012573 26.878082 -8.043579 26.878082l-33.91031 0l0 0c-4.4423523 0 -8.043579 -12.033722 -8.043579 -26.878082c0 -14.844391 3.6012268 -26.878113 8.043579 -26.878113z" fill-rule="evenodd"></path><path fill="#000000" fill-opacity="0.0" d="m15.829396 212.69554l60.692913 -60.692917" fill-rule="evenodd"></path><path stroke="#f99a1c" stroke-width="16.0" stroke-linejoin="round" stroke-linecap="round" d="m15.829396 212.69554l60.692913 -60.692917" fill-rule="evenodd"></path><path fill="#000000" fill-opacity="0.0" d="m71.13911 152.50394l65.00788 65.00787" fill-rule="evenodd"></path><path stroke="#f99a1c" stroke-width="16.0" stroke-linejoin="round" stroke-linecap="round" d="m71.13911 152.50394l65.00788 65.00787" fill-rule="evenodd"></path><path fill="#f99a1c" d="m102.239 579.39105l187.78972 0c2.0159607 0 3.9493713 0.8008423 5.374878 2.2263794c1.4254761 1.4254761 2.2263184 3.3588867 2.2263184 5.374817l0 38.005127c0 9.1552734E-4 -7.6293945E-4 0.0017089844 -0.0016784668 0.0017089844l-202.99045 -0.0017089844l0 0c-9.3078613E-4 0 -0.0016937256 -7.324219E-4 -0.0016937256 -0.0017089844l0.0016937256 -38.003418l0 0c0 -4.197998 3.4031754 -7.6011963 7.601204 -7.6011963z" fill-rule="evenodd"></path><path stroke="#f99a1c" stroke-width="1.0" stroke-linejoin="round" stroke-linecap="butt" d="m102.239 579.39105l187.78972 0c2.0159607 0 3.9493713 0.8008423 5.374878 2.2263794c1.4254761 1.4254761 2.2263184 3.3588867 2.2263184 5.374817l0 38.005127c0 9.1552734E-4 -7.6293945E-4 0.0017089844 -0.0016784668 0.0017089844l-202.99045 -0.0017089844l0 0c-9.3078613E-4 0 -0.0016937256 -7.324219E-4 -0.0016937256 -0.0017089844l0.0016937256 -38.003418l0 0c0 -4.197998 3.4031754 -7.6011963 7.601204 -7.6011963z" fill-rule="evenodd"></path><path fill="#000000" fill-opacity="0.0" d="m16.136482 137.01837l0 84.0" fill-rule="evenodd"></path><path stroke="#f99a1c" stroke-width="24.0" stroke-linejoin="round" stroke-linecap="butt" d="m16.136482 137.01837l0 84.0" fill-rule="evenodd"></path><path fill="#000000" fill-opacity="0.0" d="m256.00262 583.1365l-120.31496 -120.31494" fill-rule="evenodd"></path><path stroke="#f99a1c" stroke-width="16.0" stroke-linejoin="round" stroke-linecap="round" d="m256.00262 583.1365l-120.31496 -120.31494" fill-rule="evenodd"></path><path fill="#000000" fill-opacity="0.0" d="m135.38583 462.2546l120.50394 -120.50394" fill-rule="evenodd"></path><path stroke="#f99a1c" stroke-width="16.0" stroke-linejoin="round" stroke-linecap="round" d="m135.38583 462.2546l120.50394 -120.50394" fill-rule="evenodd"></path><path fill="#000000" fill-opacity="0.0" d="m254.54855 345.6168l-117.51181 -117.51181" fill-rule="evenodd"></path><path stroke="#f99a1c" stroke-width="16.0" stroke-linejoin="round" stroke-linecap="round" d="m254.54855 345.6168l-117.51181 -117.51181" fill-rule="evenodd"></path><path fill="#000000" fill-opacity="0.0" d="m135.9462 584.0184l0 -446.51968" fill-rule="evenodd"></path><path stroke="#f99a1c" stroke-width="24.0" stroke-linejoin="round" stroke-linecap="round" d="m135.9462 584.0184l0 -446.51968" fill-rule="evenodd"></path><path fill="#000000" fill-opacity="0.0" d="m136.6378 138.50394l58.992126 -86.48819" fill-rule="evenodd"></path><path stroke="#f99a1c" stroke-width="24.0" stroke-linejoin="round" stroke-linecap="round" d="m136.6378 138.50394l58.992126 -86.48819" fill-rule="evenodd"></path><path fill="#000000" fill-opacity="0.0" d="m196.13649 53.002625l59.496063 85.00787" fill-rule="evenodd"></path><path stroke="#f99a1c" stroke-width="24.0" stroke-linejoin="round" stroke-linecap="round" d="m196.13649 53.002625l59.496063 85.00787" fill-rule="evenodd"></path><path fill="#000000" fill-opacity="0.0" d="m255.6378 138.00262l0 445.51184" fill-rule="evenodd"></path><path stroke="#f99a1c" stroke-width="24.0" stroke-linejoin="round" stroke-linecap="round" d="m255.6378 138.00262l0 445.51184" fill-rule="evenodd"></path><path fill="#000000" fill-opacity="0.0" d="m16.136482 223.0105l640.0315 0" fill-rule="evenodd"></path><path stroke="#f99a1c" stroke-width="24.0" stroke-linejoin="round" stroke-linecap="round" d="m16.136482 223.0105l640.0315 0" fill-rule="evenodd"></path><path fill="#000000" fill-opacity="0.0" d="m150.87927 222.24672l84.755905 -84.755905" fill-rule="evenodd"></path><path stroke="#f99a1c" stroke-width="16.0" stroke-linejoin="round" stroke-linecap="round" d="m150.87927 222.24672l84.755905 -84.755905" fill-rule="evenodd"></path><path fill="#000000" fill-opacity="0.0" d="m16.136482 138.00262l554.5197 0" fill-rule="evenodd"></path><path stroke="#f99a1c" stroke-width="24.0" stroke-linejoin="round" stroke-linecap="round" d="m16.136482 138.00262l554.5197 0" fill-rule="evenodd"></path><path fill="#000000" fill-opacity="0.0" d="m570.88715 138.2546l85.00787 85.00787" fill-rule="evenodd"></path><path stroke="#f99a1c" stroke-width="24.0" stroke-linejoin="round" stroke-linecap="round" d="m570.88715 138.2546l85.00787 85.00787" fill-rule="evenodd"></path><path fill="#000000" fill-opacity="0.0" d="m255.6378 138.75853l84.25197 84.25197" fill-rule="evenodd"></path><path stroke="#f99a1c" stroke-width="16.0" stroke-linejoin="round" stroke-linecap="round" d="m255.6378 138.75853l84.25197 84.25197" fill-rule="evenodd"></path><path fill="#000000" fill-opacity="0.0" d="m337.958 222.87665l83.18109 -83.18111" fill-rule="evenodd"></path><path stroke="#f99a1c" stroke-width="16.0" stroke-linejoin="round" stroke-linecap="round" d="m337.958 222.87665l83.18109 -83.18111" fill-rule="evenodd"></path><path fill="#000000" fill-opacity="0.0" d="m420.25198 140.88977l80.566925 80.566925" fill-rule="evenodd"></path><path stroke="#f99a1c" stroke-width="16.0" stroke-linejoin="round" stroke-linecap="round" d="m420.25198 140.88977l80.566925 80.566925" fill-rule="evenodd"></path><path fill="#000000" fill-opacity="0.0" d="m500.8189 221.96326l76.91339 -76.91339" fill-rule="evenodd"></path><path stroke="#f99a1c" stroke-width="16.0" stroke-linejoin="round" stroke-linecap="round" d="m500.8189 221.96326l76.91339 -76.91339" fill-rule="evenodd"></path><path fill="#000000" fill-opacity="0.0" d="m256.26773 226.23097l-121.25986 121.25984" fill-rule="evenodd"></path><path stroke="#f99a1c" stroke-width="16.0" stroke-linejoin="round" stroke-linecap="round" d="m256.26773 226.23097l-121.25986 121.25984" fill-rule="evenodd"></path><path fill="#000000" fill-opacity="0.0" d="m136.65617 344.4882l118.99213 118.99213" fill-rule="evenodd"></path><path stroke="#f99a1c" stroke-width="16.0" stroke-linejoin="round" stroke-linecap="round" d="m136.65617 344.4882l118.99213 118.99213" fill-rule="evenodd"></path><path fill="#000000" fill-opacity="0.0" d="m255.75853 463.9239l-118.99213 118.99213" fill-rule="evenodd"></path><path stroke="#f99a1c" stroke-width="16.0" stroke-linejoin="round" stroke-linecap="round" d="m255.75853 463.9239l-118.99213 118.99213" fill-rule="evenodd"></path><path fill="#000000" fill-opacity="0.0" d="m136.64568 341.95276l118.99213 0" fill-rule="evenodd"></path><path stroke="#f99a1c" stroke-width="16.0" stroke-linejoin="round" stroke-linecap="round" d="m136.64568 341.95276l118.99213 0" fill-rule="evenodd"></path><path fill="#000000" fill-opacity="0.0" d="m136.6378 462.50394l118.99213 0" fill-rule="evenodd"></path><path stroke="#f99a1c" stroke-width="16.0" stroke-linejoin="round" stroke-linecap="round" d="m136.6378 462.50394l118.99213 0" fill-rule="evenodd"></path></g></svg>